<svg xmlns="http://www.w3.org/2000/svg" width="512" height="512" viewBox="0 0 512 512">
  <defs>
    <linearGradient id="bg" x1="0" y1="0" x2="1" y2="1">
      <stop offset="0%" stop-color="#04181a" />
      <stop offset="100%" stop-color="#0d2f32" />
    </linearGradient>
    <linearGradient id="line" x1="0" y1="0" x2="1" y2="0">
      <stop offset="0%" stop-color="#6effdb" />
      <stop offset="100%" stop-color="#00d9b8" />
    </linearGradient>
  </defs>
  <rect width="512" height="512" fill="url(#bg)" />
  <g fill="none" stroke="url(#line)" stroke-width="10" stroke-linecap="round" opacity="0.9">
    <path d="M60 130H200V70H300V150H452" />
    <path d="M60 256H170V196H290V316H452" />
    <path d="M60 382H220V442H330V352H452" />
    <path d="M256 60V452" />
  </g>
  <g fill="#a8fff0">
    <circle cx="60" cy="130" r="12" />
    <circle cx="200" cy="130" r="10" />
    <circle cx="300" cy="70" r="12" />
    <circle cx="452" cy="150" r="12" />
    <circle cx="170" cy="196" r="10" />
    <circle cx="290" cy="316" r="10" />
    <circle cx="452" cy="316" r="12" />
    <circle cx="220" cy="442" r="10" />
    <circle cx="330" cy="352" r="10" />
    <circle cx="452" cy="352" r="12" />
    <circle cx="256" cy="256" r="16" />
  </g>
</svg>
