<svg xmlns="http://www.w3.org/2000/svg" width="512" height="512" viewBox="0 0 512 512">
  <defs>
    <radialGradient id="bg" cx="50%" cy="38%" r="72%">
      <stop offset="0%" stop-color="#fff0a4" />
      <stop offset="30%" stop-color="#ffb347" />
      <stop offset="62%" stop-color="#ff6330" />
      <stop offset="100%" stop-color="#4f1209" />
    </radialGradient>
    <linearGradient id="flame" x1="0" y1="1" x2="0" y2="0">
      <stop offset="0%" stop-color="#ff3e1d" />
      <stop offset="50%" stop-color="#ffb22f" />
      <stop offset="100%" stop-color="#fff6d3" />
    </linearGradient>
  </defs>
  <rect width="512" height="512" fill="url(#bg)" />
  <g fill="url(#flame)" opacity="0.9">
    <path d="M131 402c15-57 76-74 74-146-2-58-33-78-29-131 19 13 47 43 53 86 5-25 32-53 57-67-12 41 6 75 28 101 33 38 38 98-1 151-22 30-50 43-89 43-44 0-74-15-93-37z"/>
    <path d="M228 390c8-31 41-43 40-81-1-31-17-42-15-70 10 8 25 23 29 46 3-14 17-29 30-36-7 22 4 40 16 54 18 21 21 54 0 83-12 17-28 24-48 24-23 0-40-8-52-20z" opacity="0.86"/>
  </g>
</svg>
